<?xml version="1.0" encoding="UTF-8"?>
<svg width="75px" height="75px" viewBox="0 0 75 75" version="1.1" xmlns="http://www.w3.org/2000/svg" xmlns:xlink="http://www.w3.org/1999/xlink">
    <!-- Generator: Sketch 48.2 (47327) - http://www.bohemiancoding.com/sketch -->
    <title>56591</title>
    <desc>Created with Sketch.</desc>
    <defs></defs>
    <g id="CONTACT-PAGE" stroke="none" stroke-width="1" fill="none" fill-rule="evenodd" transform="translate(-470.000000, -1033.000000)">
        <g id="56591" transform="translate(470.000000, 1033.000000)" fill="#000000" fill-rule="nonzero">
            <path d="M37.5,0 C16.7884277,0 0,16.7884277 0,37.5 C0,58.2115723 16.7884277,75 37.5,75 C58.2115723,75 75,58.2115723 75,37.5 C75,16.7884277 58.2115723,0 37.5,0 Z M37.5,69.140625 C20.0248535,69.140625 5.859375,54.9751465 5.859375,37.5 C5.859375,20.0248535 20.0248535,5.859375 37.5,5.859375 C54.9751465,5.859375 69.140625,20.0248535 69.140625,37.5 C69.140625,54.9751465 54.9751465,69.140625 37.5,69.140625 Z" id="Shape"></path>
            <path d="M18.7637695,56.2340332 L25.7950195,56.2340332 L25.7950195,28.1090332 L18.7637695,28.1090332 L18.7637695,56.2340332 Z M46.8887695,28.1090332 C40.8691406,28.2098145 37.9075195,32.5974609 37.5137695,32.7965332 L37.5137695,28.1090332 L30.4825195,28.1090332 L30.4825195,56.2340332 L37.5137695,56.2340332 L37.5137695,39.8277832 C37.5137695,39.2260254 38.9969238,34.4078613 44.5450195,35.1402832 C47.5250977,35.3348145 49.1317383,39.276123 49.2325195,39.8277832 L49.2325195,56.2340332 L56.2362305,56.2661133 L56.2362305,36.7951172 C55.9891113,33.984375 54.5837402,28.209668 46.8887695,28.1090332 Z M22.2793945,18.7340332 C20.3384766,18.7340332 18.7637695,20.3063965 18.7637695,22.2496582 C18.7637695,24.1929199 20.3384766,25.7652832 22.2793945,25.7652832 C24.2203125,25.7652832 25.7950195,24.1929199 25.7950195,22.2496582 C25.7950195,20.3063965 24.2203125,18.7340332 22.2793945,18.7340332 Z" id="Shape"></path>
        </g>
    </g>
</svg>